<svg xmlns="http://www.w3.org/2000/svg" width="880" height="1646" viewBox="0 0 880 1646">
  <rect width="100%" height="100%" fill="#0b1120"/>
  <text x="30" y="38" fill="#f1f5f9" font-size="20" font-weight="700">Amazon Aurora DSQL — AWS usage proof</text>
  <text x="30" y="60" fill="#64748b" font-size="12">AgentLedger · H0: Hack the Zero Stack · generated 2026-06-28T16:56:25.310Z from live AWS API calls</text>
  <rect x="30" y="78" width="820" height="164" rx="8" fill="#0f172a" stroke="#1e293b"/>
  <text x="42" y="98" fill="#94a3b8" font-size="11">CLUSTER (control plane · GetCluster)</text>
  <g transform="translate(54,116)">
    <table>
  <tr><td fill="#64748b" font-size="11">cluster identifier</td><td fill="#e2e8f0" font-size="11" font-family="ui-monospace,monospace">gvt4hoplihfo4v2euvr3xqp4de</td></tr>
  <tr><td fill="#64748b" font-size="11">endpoint</td><td fill="#e2e8f0" font-size="11" font-family="ui-monospace,monospace">gvt4hoplihfo4v2euvr3xqp4de.dsql.us-east-1.on.aws</td></tr>
  <tr><td fill="#64748b" font-size="11">region</td><td fill="#e2e8f0" font-size="11" font-family="ui-monospace,monospace">us-east-1</td></tr>
  <tr><td fill="#64748b" font-size="11">status</td><td fill="#e2e8f0" font-size="11" font-family="ui-monospace,monospace">ACTIVE</td></tr>
  <tr><td fill="#64748b" font-size="11">arn</td><td fill="#e2e8f0" font-size="11" font-family="ui-monospace,monospace">arn:aws:dsql:us-east-1:681238306688:cluster/gvt4hoplihfo4v2euvr3xqp4de</td></tr>
  <tr><td fill="#64748b" font-size="11">writable</td><td fill="#e2e8f0" font-size="11" font-family="ui-monospace,monospace">—</td></tr>
  <tr><td fill="#64748b" font-size="11">deletion protection</td><td fill="#e2e8f0" font-size="11" font-family="ui-monospace,monospace">true</td></tr></table>
  </g>
  <text x="30" y="120" fill="#94a3b8" font-size="11">CloudWatch metrics · AWS/AuroraDSQL · last 6h (GetMetricStatistics, 5-min period)</text>
  
  <text x="60" y="136" fill="#34d399" font-size="13" font-family="ui-monospace,monospace">ClusterStorageSize</text>
  <text x="835" y="136" fill="#94a3b8" font-size="11" text-anchor="end">Σ 2499608  ·  12 pts</text>
  <rect x="60" y="150" width="790" height="90" rx="6" fill="#0f172a" stroke="#1e293b"/>
  <line x1="60" y1="240" x2="850" y2="240" stroke="#1e293b"/>
  <line x1="60" y1="150" x2="60" y2="240" stroke="#1e293b"/>
  <text x="54" y="160" fill="#475569" font-size="9" text-anchor="end">333270</text>
  <text x="54" y="240" fill="#475569" font-size="9" text-anchor="end">0</text>
  <path d="M60.0,240.0 L131.8,240.0 L203.6,221.9 L275.5,201.7 L347.3,201.6 L419.1,165.2 L490.9,150.0 L562.7,155.8 L634.5,157.2 L706.4,157.2 L778.2,157.2 L850.0,157.2" fill="none" stroke="#34d399" stroke-width="1.8"/>
  <text x="60" y="256" fill="#475569" font-size="9">28.06.2026, 19:56:00 → 28.06.2026, 20:51:00</text>
  <text x="60" y="272" fill="#60a5fa" font-size="13" font-family="ui-monospace,monospace">BytesWritten</text>
  <text x="835" y="272" fill="#94a3b8" font-size="11" text-anchor="end">Σ 214229  ·  9 pts</text>
  <rect x="60" y="286" width="790" height="90" rx="6" fill="#0f172a" stroke="#1e293b"/>
  <line x1="60" y1="376" x2="850" y2="376" stroke="#1e293b"/>
  <line x1="60" y1="286" x2="60" y2="376" stroke="#1e293b"/>
  <text x="54" y="296" fill="#475569" font-size="9" text-anchor="end">90049</text>
  <text x="54" y="376" fill="#475569" font-size="9" text-anchor="end">0</text>
  <path d="M60.0,240.0 L139.0,204.3 L297.0,203.7 L376.0,187.9 L455.0,150.0 L534.0,240.0 L613.0,240.0 L692.0,240.0 L850.0,240.0" fill="none" stroke="#60a5fa" stroke-width="1.8"/>
  <text x="60" y="392" fill="#475569" font-size="9">28.06.2026, 20:01:00 → 28.06.2026, 20:51:00</text>
  <text x="60" y="408" fill="#fbbf24" font-size="13" font-family="ui-monospace,monospace">WriteDPU</text>
  <text x="835" y="408" fill="#94a3b8" font-size="11" text-anchor="end">Σ 13.711865234375  ·  9 pts</text>
  <rect x="60" y="422" width="790" height="90" rx="6" fill="#0f172a" stroke="#1e293b"/>
  <line x1="60" y1="512" x2="850" y2="512" stroke="#1e293b"/>
  <line x1="60" y1="422" x2="60" y2="512" stroke="#1e293b"/>
  <text x="54" y="432" fill="#475569" font-size="9" text-anchor="end">5.809863281249999</text>
  <text x="54" y="512" fill="#475569" font-size="9" text-anchor="end">0</text>
  <path d="M60.0,240.0 L139.0,200.8 L297.0,208.0 L376.0,188.8 L455.0,150.0 L534.0,240.0 L613.0,240.0 L692.0,240.0 L850.0,240.0" fill="none" stroke="#fbbf24" stroke-width="1.8"/>
  <text x="60" y="528" fill="#475569" font-size="9">28.06.2026, 20:01:00 → 28.06.2026, 20:51:00</text>
  <text x="60" y="544" fill="#f472b6" font-size="13" font-family="ui-monospace,monospace">BytesRead</text>
  <text x="835" y="544" fill="#94a3b8" font-size="11" text-anchor="end">Σ 2046180  ·  9 pts</text>
  <rect x="60" y="558" width="790" height="90" rx="6" fill="#0f172a" stroke="#1e293b"/>
  <line x1="60" y1="648" x2="850" y2="648" stroke="#1e293b"/>
  <line x1="60" y1="558" x2="60" y2="648" stroke="#1e293b"/>
  <text x="54" y="568" fill="#475569" font-size="9" text-anchor="end">754822</text>
  <text x="54" y="648" fill="#475569" font-size="9" text-anchor="end">0</text>
  <path d="M60.0,240.0 L139.0,229.0 L297.0,193.9 L376.0,158.7 L455.0,150.0 L534.0,238.2 L613.0,235.6 L692.0,235.6 L850.0,235.0" fill="none" stroke="#f472b6" stroke-width="1.8"/>
  <text x="60" y="664" fill="#475569" font-size="9">28.06.2026, 20:01:00 → 28.06.2026, 20:51:00</text>
  <text x="60" y="680" fill="#a78bfa" font-size="13" font-family="ui-monospace,monospace">CommitLatency</text>
  <text x="835" y="680" fill="#94a3b8" font-size="11" text-anchor="end">Σ 1273.4009999999998  ·  9 pts</text>
  <rect x="60" y="694" width="790" height="90" rx="6" fill="#0f172a" stroke="#1e293b"/>
  <line x1="60" y1="784" x2="850" y2="784" stroke="#1e293b"/>
  <line x1="60" y1="694" x2="60" y2="784" stroke="#1e293b"/>
  <text x="54" y="704" fill="#475569" font-size="9" text-anchor="end">548.3439999999999</text>
  <text x="54" y="784" fill="#475569" font-size="9" text-anchor="end">0</text>
  <path d="M60.0,240.0 L139.0,199.1 L297.0,202.2 L376.0,199.7 L455.0,150.0 L534.0,240.0 L613.0,240.0 L692.0,240.0 L850.0,240.0" fill="none" stroke="#a78bfa" stroke-width="1.8"/>
  <text x="60" y="800" fill="#475569" font-size="9">28.06.2026, 20:01:00 → 28.06.2026, 20:51:00</text>
  <text x="60" y="816" fill="#22d3ee" font-size="13" font-family="ui-monospace,monospace">ComputeDPU</text>
  <text x="835" y="816" fill="#94a3b8" font-size="11" text-anchor="end">Σ 6.7869280000000005  ·  9 pts</text>
  <rect x="60" y="830" width="790" height="90" rx="6" fill="#0f172a" stroke="#1e293b"/>
  <line x1="60" y1="920" x2="850" y2="920" stroke="#1e293b"/>
  <line x1="60" y1="830" x2="60" y2="920" stroke="#1e293b"/>
  <text x="54" y="840" fill="#475569" font-size="9" text-anchor="end">1.798488</text>
  <text x="54" y="920" fill="#475569" font-size="9" text-anchor="end">0</text>
  <path d="M60.0,236.1 L139.0,166.4 L297.0,182.4 L376.0,153.4 L455.0,150.0 L534.0,239.9 L613.0,231.2 L692.0,232.1 L850.0,228.8" fill="none" stroke="#22d3ee" stroke-width="1.8"/>
  <text x="60" y="936" fill="#475569" font-size="9">28.06.2026, 20:01:00 → 28.06.2026, 20:51:00</text>
  <text x="60" y="952" fill="#34d399" font-size="13" font-family="ui-monospace,monospace">TotalDPU</text>
  <text x="835" y="952" fill="#94a3b8" font-size="11" text-anchor="end">Σ 25.29009755566406  ·  9 pts</text>
  <rect x="60" y="966" width="790" height="90" rx="6" fill="#0f172a" stroke="#1e293b"/>
  <line x1="60" y1="1056" x2="850" y2="1056" stroke="#1e293b"/>
  <line x1="60" y1="966" x2="60" y2="1056" stroke="#1e293b"/>
  <text x="54" y="976" fill="#475569" font-size="9" text-anchor="end">9.322361291015625</text>
  <text x="54" y="1056" fill="#475569" font-size="9" text-anchor="end">0</text>
  <path d="M60.0,239.2 L139.0,197.6 L297.0,200.3 L376.0,176.9 L455.0,150.0 L534.0,239.7 L613.0,237.5 L692.0,237.7 L850.0,236.9" fill="none" stroke="#34d399" stroke-width="1.8"/>
  <text x="60" y="1072" fill="#475569" font-size="9">28.06.2026, 20:01:00 → 28.06.2026, 20:51:00</text>
  <text x="60" y="1088" fill="#60a5fa" font-size="13" font-family="ui-monospace,monospace">ComputeTime</text>
  <text x="835" y="1088" fill="#94a3b8" font-size="11" text-anchor="end">Σ 6783.607000000001  ·  9 pts</text>
  <rect x="60" y="1102" width="790" height="90" rx="6" fill="#0f172a" stroke="#1e293b"/>
  <line x1="60" y1="1192" x2="850" y2="1192" stroke="#1e293b"/>
  <line x1="60" y1="1102" x2="60" y2="1192" stroke="#1e293b"/>
  <text x="54" y="1112" fill="#475569" font-size="9" text-anchor="end">1798.463</text>
  <text x="54" y="1192" fill="#475569" font-size="9" text-anchor="end">0</text>
  <path d="M60.0,236.1 L139.0,166.4 L297.0,182.4 L376.0,153.6 L455.0,150.0 L534.0,239.9 L613.0,231.2 L692.0,232.1 L850.0,228.8" fill="none" stroke="#60a5fa" stroke-width="1.8"/>
  <text x="60" y="1208" fill="#475569" font-size="9">28.06.2026, 20:01:00 → 28.06.2026, 20:51:00</text>
  <text x="60" y="1224" fill="#fbbf24" font-size="13" font-family="ui-monospace,monospace">ReadDPU</text>
  <text x="835" y="1224" fill="#94a3b8" font-size="11" text-anchor="end">Σ 4.791304321289064  ·  9 pts</text>
  <rect x="60" y="1238" width="790" height="90" rx="6" fill="#0f172a" stroke="#1e293b"/>
  <line x1="60" y1="1328" x2="850" y2="1328" stroke="#1e293b"/>
  <line x1="60" y1="1238" x2="60" y2="1328" stroke="#1e293b"/>
  <text x="54" y="1248" fill="#475569" font-size="9" text-anchor="end">1.7140100097656248</text>
  <text x="54" y="1328" fill="#475569" font-size="9" text-anchor="end">0</text>
  <path d="M60.0,239.6 L139.0,219.7 L297.0,192.7 L376.0,161.3 L455.0,150.0 L534.0,238.6 L613.0,235.7 L692.0,235.7 L850.0,235.2" fill="none" stroke="#fbbf24" stroke-width="1.8"/>
  <text x="60" y="1344" fill="#475569" font-size="9">28.06.2026, 20:01:00 → 28.06.2026, 20:51:00</text>
  <text x="60" y="1360" fill="#f472b6" font-size="13" font-family="ui-monospace,monospace">TotalTransactions</text>
  <text x="835" y="1360" fill="#94a3b8" font-size="11" text-anchor="end">Σ 394  ·  9 pts</text>
  <rect x="60" y="1374" width="790" height="90" rx="6" fill="#0f172a" stroke="#1e293b"/>
  <line x1="60" y1="1464" x2="850" y2="1464" stroke="#1e293b"/>
  <line x1="60" y1="1374" x2="60" y2="1464" stroke="#1e293b"/>
  <text x="54" y="1384" fill="#475569" font-size="9" text-anchor="end">143</text>
  <text x="54" y="1464" fill="#475569" font-size="9" text-anchor="end">0</text>
  <path d="M60.0,238.1 L139.0,214.2 L297.0,187.8 L376.0,168.3 L455.0,150.0 L534.0,239.4 L613.0,238.7 L692.0,238.1 L850.0,237.5" fill="none" stroke="#f472b6" stroke-width="1.8"/>
  <text x="60" y="1480" fill="#475569" font-size="9">28.06.2026, 20:01:00 → 28.06.2026, 20:51:00</text>
  <text x="60" y="1496" fill="#a78bfa" font-size="13" font-family="ui-monospace,monospace">ReadOnlyTransactions</text>
  <text x="835" y="1496" fill="#94a3b8" font-size="11" text-anchor="end">Σ 233  ·  9 pts</text>
  <rect x="60" y="1510" width="790" height="90" rx="6" fill="#0f172a" stroke="#1e293b"/>
  <line x1="60" y1="1600" x2="850" y2="1600" stroke="#1e293b"/>
  <line x1="60" y1="1510" x2="60" y2="1600" stroke="#1e293b"/>
  <text x="54" y="1520" fill="#475569" font-size="9" text-anchor="end">74</text>
  <text x="54" y="1600" fill="#475569" font-size="9" text-anchor="end">0</text>
  <path d="M60.0,236.4 L139.0,208.4 L297.0,182.8 L376.0,151.2 L455.0,150.0 L534.0,238.8 L613.0,237.6 L692.0,236.4 L850.0,235.1" fill="none" stroke="#a78bfa" stroke-width="1.8"/>
  <text x="60" y="1616" fill="#475569" font-size="9">28.06.2026, 20:01:00 → 28.06.2026, 20:51:00</text>
</svg>